<svg width="116" height="66" viewBox="0 0 116 66" fill="none" xmlns="http://www.w3.org/2000/svg">
<path d="M27.2834 12.624H38.0674V16.656H27.2834V12.624ZM27.6674 21.84H39.8594V26H22.5154V3.6H39.4434V7.76H27.6674V21.84ZM43.6321 26V2.256H48.6241V26H43.6321ZM53.2571 26V8.784H58.2491V26H53.2571ZM55.7531 6.384C54.8358 6.384 54.0891 6.11733 53.5131 5.584C52.9371 5.05067 52.6491 4.38933 52.6491 3.6C52.6491 2.81067 52.9371 2.14933 53.5131 1.616C54.0891 1.08267 54.8358 0.815998 55.7531 0.815998C56.6705 0.815998 57.4171 1.072 57.9931 1.584C58.5691 2.07467 58.8571 2.71467 58.8571 3.504C58.8571 4.336 58.5691 5.02933 57.9931 5.584C57.4385 6.11733 56.6918 6.384 55.7531 6.384ZM69.9221 26.256C67.8955 26.256 66.3168 25.744 65.1861 24.72C64.0555 23.6747 63.4901 22.128 63.4901 20.08V4.976H68.4821V20.016C68.4821 20.7413 68.6741 21.3067 69.0581 21.712C69.4421 22.096 69.9648 22.288 70.6261 22.288C71.4155 22.288 72.0875 22.0747 72.6421 21.648L73.9861 25.168C73.4741 25.5307 72.8555 25.808 72.1301 26C71.4261 26.1707 70.6901 26.256 69.9221 26.256ZM60.8341 13.008V9.168H72.7701V13.008H60.8341ZM84.8011 26.256C82.8385 26.256 81.1105 25.872 79.6171 25.104C78.1451 24.336 77.0038 23.2907 76.1931 21.968C75.3825 20.624 74.9771 19.0987 74.9771 17.392C74.9771 15.664 75.3718 14.1387 76.1611 12.816C76.9718 11.472 78.0705 10.4267 79.4571 9.68C80.8438 8.912 82.4118 8.528 84.1611 8.528C85.8465 8.528 87.3611 8.89067 88.7051 9.616C90.0705 10.32 91.1478 11.344 91.9371 12.688C92.7265 14.0107 93.1211 15.6 93.1211 17.456C93.1211 17.648 93.1105 17.872 93.0891 18.128C93.0678 18.3627 93.0465 18.5867 93.0251 18.8H79.0411V15.888H90.4011L88.4811 16.752C88.4811 15.856 88.2998 15.0773 87.9371 14.416C87.5745 13.7547 87.0731 13.2427 86.4331 12.88C85.7931 12.496 85.0465 12.304 84.1931 12.304C83.3398 12.304 82.5825 12.496 81.9211 12.88C81.2811 13.2427 80.7798 13.7653 80.4171 14.448C80.0545 15.1093 79.8731 15.8987 79.8731 16.816V17.584C79.8731 18.5227 80.0758 19.3547 80.4811 20.08C80.9078 20.784 81.4945 21.328 82.2411 21.712C83.0091 22.0747 83.9051 22.256 84.9291 22.256C85.8465 22.256 86.6465 22.1173 87.3291 21.84C88.0331 21.5627 88.6731 21.1467 89.2491 20.592L91.9051 23.472C91.1158 24.368 90.1238 25.0613 88.9291 25.552C87.7345 26.0213 86.3585 26.256 84.8011 26.256ZM16.1723 42.6H21.3563V65H16.1723V42.6ZM5.99625 65H0.81225V42.6H5.99625V65ZM16.5563 55.816H5.61225V51.432H16.5563V55.816ZM34.496 65.256C32.6613 65.256 31.0293 64.872 29.6 64.104C28.192 63.336 27.072 62.2907 26.24 60.968C25.4293 59.624 25.024 58.0987 25.024 56.392C25.024 54.664 25.4293 53.1387 26.24 51.816C27.072 50.472 28.192 49.4267 29.6 48.68C31.0293 47.912 32.6613 47.528 34.496 47.528C36.3093 47.528 37.9307 47.912 39.36 48.68C40.7893 49.4267 41.9093 50.4613 42.72 51.784C43.5307 53.1067 43.936 54.6427 43.936 56.392C43.936 58.0987 43.5307 59.624 42.72 60.968C41.9093 62.2907 40.7893 63.336 39.36 64.104C37.9307 64.872 36.3093 65.256 34.496 65.256ZM34.496 61.16C35.328 61.16 36.0747 60.968 36.736 60.584C37.3973 60.2 37.92 59.656 38.304 58.952C38.688 58.2267 38.88 57.3733 38.88 56.392C38.88 55.3893 38.688 54.536 38.304 53.832C37.92 53.128 37.3973 52.584 36.736 52.2C36.0747 51.816 35.328 51.624 34.496 51.624C33.664 51.624 32.9173 51.816 32.256 52.2C31.5947 52.584 31.0613 53.128 30.656 53.832C30.272 54.536 30.08 55.3893 30.08 56.392C30.08 57.3733 30.272 58.2267 30.656 58.952C31.0613 59.656 31.5947 60.2 32.256 60.584C32.9173 60.968 33.664 61.16 34.496 61.16ZM69.3208 47.528C70.6861 47.528 71.8914 47.8053 72.9368 48.36C74.0034 48.8933 74.8354 49.7253 75.4328 50.856C76.0514 51.9653 76.3608 53.3947 76.3608 55.144V65H71.3688V55.912C71.3688 54.5253 71.0808 53.5013 70.5048 52.84C69.9288 52.1787 69.1181 51.848 68.0728 51.848C67.3474 51.848 66.6968 52.0187 66.1208 52.36C65.5448 52.68 65.0968 53.1707 64.7768 53.832C64.4568 54.4933 64.2968 55.336 64.2968 56.36V65H59.3048V55.912C59.3048 54.5253 59.0168 53.5013 58.4408 52.84C57.8861 52.1787 57.0861 51.848 56.0408 51.848C55.3154 51.848 54.6648 52.0187 54.0888 52.36C53.5128 52.68 53.0648 53.1707 52.7448 53.832C52.4248 54.4933 52.2648 55.336 52.2648 56.36V65H47.2728V47.784H52.0408V52.488L51.1448 51.112C51.7421 49.9387 52.5848 49.0533 53.6728 48.456C54.7821 47.8373 56.0408 47.528 57.4488 47.528C59.0274 47.528 60.4034 47.9333 61.5768 48.744C62.7714 49.5333 63.5608 50.7493 63.9448 52.392L62.1848 51.912C62.7608 50.568 63.6781 49.5013 64.9368 48.712C66.2168 47.9227 67.6781 47.528 69.3208 47.528ZM89.5043 65.256C87.5416 65.256 85.8136 64.872 84.3203 64.104C82.8483 63.336 81.7069 62.2907 80.8963 60.968C80.0856 59.624 79.6803 58.0987 79.6803 56.392C79.6803 54.664 80.0749 53.1387 80.8643 51.816C81.6749 50.472 82.7736 49.4267 84.1603 48.68C85.5469 47.912 87.1149 47.528 88.8643 47.528C90.5496 47.528 92.0643 47.8907 93.4083 48.616C94.7736 49.32 95.8509 50.344 96.6403 51.688C97.4296 53.0107 97.8243 54.6 97.8243 56.456C97.8243 56.648 97.8136 56.872 97.7923 57.128C97.7709 57.3627 97.7496 57.5867 97.7283 57.8H83.7443V54.888H95.1042L93.1843 55.752C93.1843 54.856 93.0029 54.0773 92.6403 53.416C92.2776 52.7547 91.7763 52.2427 91.1363 51.88C90.4963 51.496 89.7496 51.304 88.8963 51.304C88.0429 51.304 87.2856 51.496 86.6243 51.88C85.9843 52.2427 85.4829 52.7653 85.1203 53.448C84.7576 54.1093 84.5763 54.8987 84.5763 55.816V56.584C84.5763 57.5227 84.7789 58.3547 85.1843 59.08C85.6109 59.784 86.1976 60.328 86.9443 60.712C87.7123 61.0747 88.6083 61.256 89.6323 61.256C90.5496 61.256 91.3496 61.1173 92.0323 60.84C92.7363 60.5627 93.3763 60.1467 93.9523 59.592L96.6083 62.472C95.8189 63.368 94.8269 64.0613 93.6323 64.552C92.4376 65.0213 91.0616 65.256 89.5043 65.256ZM106.94 65.256C105.468 65.256 104.049 65.0853 102.684 64.744C101.34 64.3813 100.273 63.9333 99.4838 63.4L101.148 59.816C101.937 60.3067 102.865 60.712 103.932 61.032C105.02 61.3307 106.086 61.48 107.132 61.48C108.284 61.48 109.094 61.3413 109.564 61.064C110.054 60.7867 110.3 60.4027 110.3 59.912C110.3 59.5067 110.108 59.208 109.724 59.016C109.361 58.8027 108.87 58.6427 108.252 58.536C107.633 58.4293 106.95 58.3227 106.204 58.216C105.478 58.1093 104.742 57.9707 103.996 57.8C103.249 57.608 102.566 57.3307 101.948 56.968C101.329 56.6053 100.828 56.1147 100.444 55.496C100.081 54.8773 99.8997 54.0773 99.8997 53.096C99.8997 52.008 100.209 51.048 100.828 50.216C101.468 49.384 102.385 48.7333 103.58 48.264C104.774 47.7733 106.204 47.528 107.868 47.528C109.041 47.528 110.236 47.656 111.452 47.912C112.668 48.168 113.681 48.5413 114.492 49.032L112.828 52.584C111.996 52.0933 111.153 51.7627 110.3 51.592C109.468 51.4 108.657 51.304 107.868 51.304C106.758 51.304 105.948 51.4533 105.436 51.752C104.924 52.0507 104.668 52.4347 104.668 52.904C104.668 53.3307 104.849 53.6507 105.212 53.864C105.596 54.0773 106.097 54.248 106.716 54.376C107.334 54.504 108.006 54.6213 108.732 54.728C109.478 54.8133 110.225 54.952 110.972 55.144C111.718 55.336 112.39 55.6133 112.988 55.976C113.606 56.3173 114.108 56.7973 114.492 57.416C114.876 58.0133 115.068 58.8027 115.068 59.784C115.068 60.8507 114.748 61.8 114.108 62.632C113.468 63.4427 112.54 64.0827 111.324 64.552C110.129 65.0213 108.668 65.256 106.94 65.256Z" fill="white"/>
</svg>
