<svg width="145" height="20" viewBox="0 0 145 20" fill="none" xmlns="http://www.w3.org/2000/svg">
<path d="M4.39755 9.2751H12.238V12.2065H4.39755V9.2751ZM4.67674 15.9755H13.5408V19H0.931021V2.71428H13.2384V5.73877H4.67674V15.9755ZM16.2838 19V1.73714H19.9131V19H16.2838ZM23.2815 19V6.48326H26.9109V19H23.2815ZM25.0962 4.73837C24.4293 4.73837 23.8864 4.54449 23.4677 4.15673C23.0489 3.76898 22.8395 3.28816 22.8395 2.71428C22.8395 2.14041 23.0489 1.65959 23.4677 1.27184C23.8864 0.88408 24.4293 0.690202 25.0962 0.690202C25.7632 0.690202 26.306 0.876325 26.7248 1.24857C27.1436 1.60531 27.353 2.07061 27.353 2.64449C27.353 3.24939 27.1436 3.75347 26.7248 4.15673C26.3215 4.54449 25.7787 4.73837 25.0962 4.73837ZM35.3977 19.1861C33.9242 19.1861 32.7764 18.8139 31.9544 18.0694C31.1324 17.3094 30.7213 16.1849 30.7213 14.6959V3.71469H34.3507V14.6494C34.3507 15.1767 34.4903 15.5878 34.7695 15.8824C35.0487 16.1616 35.4287 16.3012 35.9095 16.3012C36.4834 16.3012 36.972 16.1461 37.3752 15.8359L38.3524 18.3951C37.9801 18.6588 37.5303 18.8604 37.003 19C36.4911 19.1241 35.956 19.1861 35.3977 19.1861ZM28.7903 9.55429V6.76245H37.4683V9.55429H28.7903ZM46.2153 19.1861C44.7884 19.1861 43.532 18.9069 42.4463 18.3486C41.3761 17.7902 40.5463 17.0302 39.9569 16.0686C39.3675 15.0914 39.0729 13.9824 39.0729 12.7416C39.0729 11.4853 39.3598 10.3763 39.9337 9.41469C40.5231 8.43755 41.3218 7.67755 42.33 7.13469C43.3382 6.57633 44.4782 6.29714 45.75 6.29714C46.9753 6.29714 48.0765 6.56082 49.0537 7.08816C50.0463 7.6 50.8296 8.34449 51.4035 9.32163C51.9773 10.2833 52.2643 11.4388 52.2643 12.7882C52.2643 12.9278 52.2565 13.0906 52.241 13.2767C52.2255 13.4473 52.21 13.6102 52.1945 13.7653H42.0275V11.6482H50.2867L48.8908 12.2763C48.8908 11.6249 48.759 11.0588 48.4953 10.578C48.2316 10.0971 47.8671 9.7249 47.4018 9.46122C46.9365 9.18204 46.3937 9.04245 45.7733 9.04245C45.1529 9.04245 44.6022 9.18204 44.1214 9.46122C43.6561 9.7249 43.2916 10.1049 43.028 10.6012C42.7643 11.082 42.6324 11.6559 42.6324 12.3229V12.8812C42.6324 13.5637 42.7798 14.1686 43.0745 14.6959C43.3847 15.2078 43.8112 15.6033 44.3541 15.8824C44.9124 16.1461 45.5639 16.278 46.3084 16.278C46.9753 16.278 47.5569 16.1771 48.0533 15.9755C48.5651 15.7739 49.0304 15.4714 49.4492 15.0682L51.3802 17.162C50.8063 17.8135 50.0851 18.3176 49.2165 18.6743C48.348 19.0155 47.3475 19.1861 46.2153 19.1861ZM72.6927 2.71428H76.4617V19H72.6927V2.71428ZM65.2943 19H61.5253V2.71428H65.2943V19ZM72.9719 12.3229H65.0151V9.13551H72.9719V12.3229ZM86.0148 19.1861C84.6809 19.1861 83.4944 18.9069 82.4552 18.3486C81.4315 17.7902 80.6172 17.0302 80.0123 16.0686C79.4229 15.0914 79.1283 13.9824 79.1283 12.7416C79.1283 11.4853 79.4229 10.3763 80.0123 9.41469C80.6172 8.43755 81.4315 7.67755 82.4552 7.13469C83.4944 6.57633 84.6809 6.29714 86.0148 6.29714C87.3332 6.29714 88.5119 6.57633 89.5511 7.13469C90.5903 7.67755 91.4046 8.4298 91.994 9.39143C92.5834 10.3531 92.8781 11.4698 92.8781 12.7416C92.8781 13.9824 92.5834 15.0914 91.994 16.0686C91.4046 17.0302 90.5903 17.7902 89.5511 18.3486C88.5119 18.9069 87.3332 19.1861 86.0148 19.1861ZM86.0148 16.2082C86.6197 16.2082 87.1625 16.0686 87.6434 15.7894C88.1242 15.5102 88.5042 15.1147 88.7834 14.6029C89.0625 14.0755 89.2021 13.4551 89.2021 12.7416C89.2021 12.0127 89.0625 11.3922 88.7834 10.8804C88.5042 10.3686 88.1242 9.97306 87.6434 9.69388C87.1625 9.41469 86.6197 9.2751 86.0148 9.2751C85.4099 9.2751 84.867 9.41469 84.3862 9.69388C83.9054 9.97306 83.5176 10.3686 83.223 10.8804C82.9438 11.3922 82.8042 12.0127 82.8042 12.7416C82.8042 13.4551 82.9438 14.0755 83.223 14.6029C83.5176 15.1147 83.9054 15.5102 84.3862 15.7894C84.867 16.0686 85.4099 16.2082 86.0148 16.2082ZM111.334 6.29714C112.326 6.29714 113.203 6.49877 113.963 6.90204C114.738 7.28979 115.343 7.89469 115.777 8.71673C116.227 9.52326 116.452 10.5624 116.452 11.8343V19H112.823V12.3927C112.823 11.3845 112.613 10.64 112.195 10.1592C111.776 9.67837 111.186 9.43796 110.426 9.43796C109.899 9.43796 109.426 9.56204 109.007 9.8102C108.588 10.0429 108.263 10.3996 108.03 10.8804C107.797 11.3612 107.681 11.9739 107.681 12.7184V19H104.052V12.3927C104.052 11.3845 103.842 10.64 103.424 10.1592C103.02 9.67837 102.439 9.43796 101.679 9.43796C101.151 9.43796 100.678 9.56204 100.26 9.8102C99.8407 10.0429 99.515 10.3996 99.2824 10.8804C99.0497 11.3612 98.9334 11.9739 98.9334 12.7184V19H95.304V6.48326H98.7705V9.90326L98.1191 8.90286C98.5534 8.0498 99.166 7.40612 99.9571 6.97184C100.764 6.52204 101.679 6.29714 102.702 6.29714C103.85 6.29714 104.851 6.59184 105.704 7.18122C106.572 7.7551 107.146 8.63918 107.425 9.83347L106.146 9.48449C106.564 8.50735 107.231 7.73184 108.146 7.15796C109.077 6.58408 110.14 6.29714 111.334 6.29714ZM126.008 19.1861C124.581 19.1861 123.325 18.9069 122.239 18.3486C121.169 17.7902 120.339 17.0302 119.75 16.0686C119.16 15.0914 118.866 13.9824 118.866 12.7416C118.866 11.4853 119.153 10.3763 119.726 9.41469C120.316 8.43755 121.115 7.67755 122.123 7.13469C123.131 6.57633 124.271 6.29714 125.543 6.29714C126.768 6.29714 127.869 6.56082 128.846 7.08816C129.839 7.6 130.622 8.34449 131.196 9.32163C131.77 10.2833 132.057 11.4388 132.057 12.7882C132.057 12.9278 132.049 13.0906 132.034 13.2767C132.018 13.4473 132.003 13.6102 131.987 13.7653H121.82V11.6482H130.079L128.684 12.2763C128.684 11.6249 128.552 11.0588 128.288 10.578C128.024 10.0971 127.66 9.7249 127.195 9.46122C126.729 9.18204 126.186 9.04245 125.566 9.04245C124.946 9.04245 124.395 9.18204 123.914 9.46122C123.449 9.7249 123.084 10.1049 122.821 10.6012C122.557 11.082 122.425 11.6559 122.425 12.3229V12.8812C122.425 13.5637 122.573 14.1686 122.867 14.6959C123.177 15.2078 123.604 15.6033 124.147 15.8824C124.705 16.1461 125.357 16.278 126.101 16.278C126.768 16.278 127.35 16.1771 127.846 15.9755C128.358 15.7739 128.823 15.4714 129.242 15.0682L131.173 17.162C130.599 17.8135 129.878 18.3176 129.009 18.6743C128.141 19.0155 127.14 19.1861 126.008 19.1861ZM138.684 19.1861C137.614 19.1861 136.583 19.062 135.59 18.8139C134.613 18.5502 133.837 18.2245 133.264 17.8367L134.473 15.231C135.047 15.5878 135.722 15.8824 136.497 16.1151C137.288 16.3322 138.064 16.4408 138.824 16.4408C139.661 16.4408 140.251 16.34 140.592 16.1384C140.949 15.9367 141.127 15.6576 141.127 15.3008C141.127 15.0061 140.988 14.789 140.708 14.6494C140.445 14.4943 140.088 14.378 139.638 14.3004C139.188 14.2229 138.692 14.1453 138.149 14.0678C137.622 13.9902 137.087 13.8894 136.544 13.7653C136.001 13.6257 135.505 13.4241 135.055 13.1604C134.605 12.8967 134.241 12.54 133.961 12.0902C133.698 11.6404 133.566 11.0588 133.566 10.3453C133.566 9.55429 133.791 8.85633 134.241 8.25143C134.706 7.64653 135.373 7.17347 136.241 6.83224C137.11 6.47551 138.149 6.29714 139.359 6.29714C140.212 6.29714 141.081 6.3902 141.965 6.57633C142.849 6.76245 143.586 7.03388 144.175 7.39061L142.965 9.97306C142.36 9.61633 141.748 9.37592 141.127 9.25184C140.522 9.11224 139.933 9.04245 139.359 9.04245C138.553 9.04245 137.963 9.15102 137.591 9.36816C137.219 9.58531 137.033 9.86449 137.033 10.2057C137.033 10.5159 137.164 10.7486 137.428 10.9037C137.707 11.0588 138.072 11.1829 138.521 11.2759C138.971 11.369 139.46 11.4543 139.987 11.5318C140.53 11.5939 141.073 11.6947 141.616 11.8343C142.159 11.9739 142.647 12.1755 143.081 12.4392C143.531 12.6873 143.896 13.0363 144.175 13.4861C144.454 13.9204 144.594 14.4943 144.594 15.2078C144.594 15.9833 144.361 16.6735 143.896 17.2784C143.43 17.8678 142.756 18.3331 141.872 18.6743C141.003 19.0155 139.941 19.1861 138.684 19.1861Z" fill="black"/>
</svg>
